<?xml version="1.0" encoding="UTF-8"?>
<svg id="Calque_1" xmlns="http://www.w3.org/2000/svg" width="600" height="600" version="1.1" viewBox="0 0 600 600">
  <!-- Generator: Adobe Illustrator 29.7.0, SVG Export Plug-In . SVG Version: 2.1.1 Build 138)  -->
  <defs>
    <style>
      .st0 {
        fill: #173a1b;
      }

      .st1 {
        fill: #4fd689;
      }
    </style>
  </defs>
  <path class="st1" d="M364.3,280.4c-23.8-7.3-50.2-5.8-73.1,4.2-6.8,3-14,7.6-15.2,14.9-1.3,8,5.1,15.2,11.8,19.8,6.7,4.6,14.5,8.6,18.2,15.8,7.1,13.8-4.5,30.5-1.1,45.6,2.5,11.4,13.1,19.3,23.9,23.8,8.4,3.5,17.6,5.5,26.6,3.8,11.1-2.1,20.5-9.8,26.5-19.3,6-9.5,8.8-20.7,10.2-31.9,2.2-18.5-1.3-40.6-17.6-49.7"/>
  <g>
    <path class="st0" d="M363.4,408.3c3-.6,5.3-3,5.9-5.3,1.2-2.4,1.2-4.2,1.8-5.9.6-1.8.6-4.2.6-5.9,0-4.2-1.2-8.9-4.2-12.5-3-3.6-7.1-5.3-10.7-7.1-3.6-1.8-6.5-3-9.5-4.7-2.4-1.8-4.2-3.6-4.7-5.9s-.6-5.3,0-8.9c1.2-5.9,4.7-14.2,3.6-23.7-1.2-8.9-5.9-16.6-12.5-22.5-6.5-5.9-14.8-9.5-23.1-10.1-11.9-1.8-24.3,1.2-35.6,5.9-3.6,1.8-7.1,3-10.7,5.9-3.6,2.4-7.1,5.9-8.9,10.7-1.8,4.2-2.4,10.1,0,14.8,4.7,9.5,13.6,12.5,20.2,15.4,7.1,2.4,12.5,5.3,14.8,11.3,2.4,5.9,2.4,13.1,2.4,20.8.6,3.6,1.2,7.7,2.4,11.9,1.8,3.6,4.2,7.1,7.7,9.5,7.7,4.2,15.4,2.4,22.5.6-7.1.6-15.4.6-20.8-3.6-5.3-4.2-6.5-11.3-6.5-18.4s1.8-14.8-1.2-23.1c-1.2-4.2-4.2-8.3-7.7-10.7-3.6-3-7.1-4.2-10.7-5.9-3.6-1.8-6.5-3-8.9-4.7-2.4-1.8-4.7-4.2-5.3-5.9-1.8-4.2,1.2-9.5,5.9-12.5,5.3-3.6,11.9-5.9,18.4-7.7,6.5-1.8,13.1-2.4,19.6-1.8s12.5,3,17.2,7.1c4.7,4.2,8.3,9.5,8.9,15.4,1.2,5.3-1.2,11.9-3,20.2-.6,4.2-.6,8.9,1.2,13.6,1.8,4.7,5.3,8.9,9.5,10.7,3.6,2.4,7.7,3.6,10.7,4.7,3.6,1.2,6.5,2.4,8.3,4.2,1.8,1.8,3,4.7,3.6,7.7v4.7c0,1.8-.6,3.6-.6,4.7-.6,1.2-.6,1.8-1.8,2.4-1.2.6-2.4,0-4.2,0-3.6-.6-6.5-2.4-10.7-3.6-7.7-1.8-15.4.6-22.5,3,7.1-.6,14.8-1.8,21.4.6,3,1.2,6.5,3.6,10.1,4.7,2.4,0,4.7.6,7.1,0Z"/>
    <g id="_x31_9">
      <path class="st0" d="M291.7,523.7c3,0,5.5-2.5,5.5-5.5v-24c13.2-.7,26.3-2.8,39-6.1,85.9-16.4,151.3-91.1,153.5-181.1h44.9c3,0,5.5-2.5,5.5-5.5s-2.5-5.5-5.5-5.5h-44.9c-3.4-102-88.2-184.5-192.4-182.6v-31.6c0-3-2.5-5.5-5.5-5.5s-5.5,2.5-5.5,5.5v32.1c-86.2,6.6-176.7,70.7-183.1,182.1h-37.6c-3,0-5.5,2.5-5.5,5.5s2.5,5.5,5.5,5.5h37.3c-.1,105.8,86.1,186.8,183.4,187.5v23.8c0,3,2.5,5.5,5.5,5.5ZM291.7,180.4c3,0,5.5-2.5,5.5-5.5v-7.7c75.4-2,135.1,57.2,138.5,128.7h-10c-3,0-5.5,2.5-5.5,5.5s2.5,5.5,5.5,5.5h10.1c-2.4,72.7-62.8,132.5-138.6,130.6v-9.5c0-3-2.5-5.5-5.5-5.5s-5.5,2.5-5.5,5.5v8.9c-66.3-7.1-118.3-62.3-120.6-129.9h10.7c3,0,5.5-2.5,5.5-5.5s-2.5-5.5-5.5-5.5h-10.6c3.2-66.8,54.8-121,120.5-128.1v7c0,3,2.5,5.5,5.5,5.5ZM154.6,306.9c2.3,73.7,59.2,133.9,131.6,141v31.9c-90-7.3-161.2-81.7-163.5-172.9h31.9ZM154.7,296h-32c3.2-90.4,74.1-163.8,163.5-171v31.9c-71.8,7.1-128.3,66.3-131.5,139.1ZM297.2,480.4v-31.9c82.1,1.9,147.1-63,149.6-141.6h31.9c-2.5,96.9-82.9,175.4-181.5,173.5ZM478.6,296h-32c-3.4-77.6-67.9-141.6-149.5-139.7v-31.9c98.2-2,178,75.7,181.4,171.6Z"/>
    </g>
    <path class="st0" d="M213.9,196.5c3.6,1.2,6.5,4.2,7.7,7.1,2.4,5.3.6,11.9-1.8,17.8s-5.9,11.3-8.3,18.4c-2.4,6.5-3,14.8,1.2,22.5,2.4,3.6,5.9,6.5,8.9,8.3,5.9,3,11.3,4.2,13.6,8.3,1.2,1.8,1.2,4.2,1.2,6.5-.6,4.7-3,9.5-7.7,13.1-4.2,4.2-9.5,7.1-15.4,11.3-5.3,4.2-11.3,9.5-14.2,17.2-3,7.7-2.4,16.6.6,23.7s7.7,13.1,13.1,17.8c5.3,4.7,11.3,8.3,17.2,11.3,11.3,6.5,22.5,13.1,28.5,23.7,4.7,9.4,5.3,21.1.5,31.4l1.4-.2c6.5-9.5,8.1-22.7,3.5-34.2-3-6.5-7.1-12.5-12.5-17.2-5.3-4.7-10.7-8.3-16-11.9-10.7-7.1-20.8-14.8-24.9-25.5-1.8-5.3-2.4-10.7,0-14.8,1.8-4.7,5.9-8.9,10.7-12.5,4.7-3.6,10.7-7.7,16-12.5,5.3-4.7,10.1-12.5,10.7-20.8,0-4.2-.6-8.9-3-12.5-2.4-4.2-5.9-7.1-9.5-8.3-7.1-3-12.5-4.2-14.8-7.7-3-3.6-3-10.1-1.8-15.4,1.2-5.9,4.2-11.9,6.5-18.4,1.8-6.5,2.4-14.2-1.2-20.8-1.7-2.5-3.6-4.4-5.9-5.5l-4.2-.4Z"/>
    <path class="st0" d="M427.9,349.8c-10.5,7.1-24.2,8.9-34.8,3.9-13.6-5.9-22.5-22-20.2-36.2.6-7.1,4.2-16,1.2-26.7-1.8-4.7-4.7-9.5-8.3-12.5-3.6-3-7.7-5.3-11.9-7.1-8.9-3.6-17.8-3.6-25.5-4.7-8.3-.6-15.4-1.8-22-4.7-3-1.2-5.9-3.6-7.7-5.9-1.8-2.4-3-4.7-3.6-7.7-.6-3,.6-5.9,1.8-7.7,1.2-1.8,3.6-3,6.5-3.6,5.9-1.2,14.2,1.8,23.7,1.2,7.1-.6,13.6-2.4,19.6-5.9,2.4-1.2,4.2-3,5.9-4.7,1.8-1.8,3.6-4.2,4.2-7.1.6-3,.6-6.5-1.2-9.5-3.6-5.3-8.9-7.1-13.6-7.7-4.7,0-8.3,0-11.9-.6-3.6-.6-7.1-1.8-10.7-3.6-7.1-3-12.5-8.9-16-16-2.3-2.3-3.8-5.6-4.7-9.2l-2.3-2.3c-.8,13.3,6.2,27.5,18.8,35.2,3.6,2.4,7.7,4.2,12.5,4.7,4.2,1.2,8.9.6,12.5,1.2,3.6.6,5.9,1.8,7.1,4.2.6,1.8,0,3.6-2.4,5.9-1.2,1.2-2.4,1.8-4.2,3-4.7,2.4-10.1,4.2-15.4,4.2-7.1.6-14.8-3-24.9-1.8-5.3.6-10.7,3-14.2,8.3-3.6,4.7-4.2,10.7-4.2,15.4.6,5.3,2.4,10.1,5.9,14.2,3,4.2,7.7,7.1,11.9,8.9,8.9,4.2,17.8,4.7,26.1,5.3,8.3.6,16,1.2,22.5,3.6,6.5,2.4,12.5,6.5,14.2,12.5,2.4,5.9.6,13.6-.6,22.5-1.8,18.4,10.7,36.8,27.3,42.1,12.5,3.8,26,1.1,35.5-6.2l2.9-4.9Z"/>
  </g>
</svg>