<?xml version="1.0" encoding="UTF-8"?>
<svg id="Calque_1" xmlns="http://www.w3.org/2000/svg" width="600" height="600" version="1.1" viewBox="0 0 600 600">
  <!-- Generator: Adobe Illustrator 29.7.0, SVG Export Plug-In . SVG Version: 2.1.1 Build 138)  -->
  <defs>
    <style>
      .st0 {
        fill: #173a1b;
      }

      .st1 {
        fill: #4fd689;
      }
    </style>
  </defs>
  <path class="st1" d="M301.3,154.6c-1,12-2.1,24-3.1,36.1-.3,3.9-1.5,12.1.5,15.5,1.7,3,18.1,1,32.5,10.5,32.7,21.8,51.5,47.7,25.5,97.5-2.7,5.2-1.9,11.8-5.2,16.6-3,4.4-7.6,7.6-12.2,10.4-14.2,8.6-30,14.4-46.4,17.1-1.2.2-2.6.5-3.3,1.5-.6.8-.6,1.8-.5,2.8.3,24,.6,48,.9,72,10.9,2.6,21.8,5.2,32.7,7.8,2.3.5,4.8,1.1,6.9,0,2.6-1.3,3.6-4.5,4.3-7.3,3.2-12.9,6.4-25.8,9.6-38.7,1-4,2-8.1,4.8-11.2,2.4-2.7,5.8-4.3,9.1-5.9,36.3-18.4,58.6-57.5,66.4-97.5,6.7-34.4-.7-53-19.9-82.2-19.3-29.2-51.2-43.3-90.7-48.7-5.6-.8-7-3.7-8.1,1.9"/>
  <g>
    <path class="st0" d="M174.9,275.4c1.7,33.6,18.1,65.5,43.1,87.1,6.9,5.2,12.9,9.5,18.1,14.7,5.2,5.2,10.3,11.2,13.8,18.1,6.9,12.1,11.2,25,11.2,39.7h-2.6c-3.4,0-6.9,0-10.3,1.7-6.9,3.4-11.2,10.3-12.1,18.1,0,6,2.6,12.1,6.9,17.2-4.3,3.4-6.9,9.5-6.9,14.7,0,7.8,3.4,16.4,11.2,19.8,3.4,1.7,7.8,3.4,11.2,3.4h7.8l32.8.9,32.8-.9h7.8c3.4,0,7.8-.9,11.2-3.4,6.9-4.3,11.2-12.1,11.2-19.8s-2.6-11.2-6.9-14.7c4.3-4.3,6.9-10.3,6.9-17.2s-5.2-15.5-12.1-18.1c-3.4-1.7-6.9-2.6-10.3-1.7h-2.6c.9-13.8,4.3-27.6,11.2-39.7,3.4-6.9,8.6-12.9,13.8-18.1,5.2-5.2,11.2-9.5,18.1-14.7,12.9-10.3,23.3-24.1,31-38.8,6.9-14.7,12.1-31,12.9-48.3,2.6-33.6-11.2-68.1-34.5-92.3-23.3-25-56.9-39.7-90.6-39.7s-67.3,14.7-90.6,39.7c-23.3,25-35.4,59.5-33.6,92.3h0ZM344.8,493.6c-1.7.9-2.6.9-4.3.9h-7.8l-32.8-.9-32.8.9h-7.8c-1.7,0-2.6,0-4.3-.9-2.6-.9-4.3-3.4-5.2-6.9,0-3.4.9-6,4.3-8.6l.9-.9c1.7,0,2.6.9,3.4.9h7.8l32.8.9,32.8-.9h7.8c.9,0,2.6,0,3.4-.9,0,0,.9,0,.9.9,2.6,1.7,4.3,5.2,4.3,8.6.9,3.4-.9,6-3.4,6.9h0ZM345.7,446.2c2.6,1.7,4.3,5.2,4.3,8.6s-2.6,6-5.2,6.9c-1.7.9-2.6.9-4.3.9h-7.8l-32.8-.9-32.8.9h-7.8c-1.7,0-2.6,0-4.3-.9-2.6-.9-4.3-3.4-5.2-6.9,0-3.4.9-6,4.3-8.6,1.7-.9,2.6-1.7,5.2-1.7l7.8-.9c9.5-.9,19.8-2.6,29.3-3.4h4.3c10.3,1.7,20.7,2.6,31,4.3l7.8.9c3.4-.9,5.2,0,6,.9h0ZM300,161.6c29.3,0,58.6,12.1,79.3,33.6,20.7,20.7,32.8,50,31.9,80.2,0,30.2-13.8,59.5-36.2,80.2-5.2,5.2-12.1,10.3-17.2,16.4-5.2,6-10.3,12.9-13.8,20.7-6.9,12.9-9.5,28.5-8.6,43.1h-2.6c-10.3.9-20.7,2.6-31,4.3h-4.3c-9.5-1.7-19.8-2.6-29.3-3.4h-.9c0-14.7-2.6-30.2-9.5-43.1-3.4-7.8-8.6-14.7-13.8-20.7-5.2-6-12.1-11.2-17.2-16.4-22.4-20.7-35.4-50-36.2-80.2-.9-30.2,10.3-59.5,31.9-80.2,19-22.4,48.3-35.4,77.6-34.5Z"/>
    <path class="st0" d="M300,121c3.4-2.6,5.2-5.2,6.9-7.8,2.6-5.2,2.6-11.2,0-16.4-1.7-2.6-3.4-5.2-6.9-7.8-3.4,2.6-5.2,5.2-6.9,7.8-2.6,5.2-2.6,11.2,0,16.4,1.7,2.6,3.4,5.2,6.9,7.8Z"/>
    <path class="st0" d="M436.3,144.3c-4.3-.9-7.8,0-10.3.9-5.2,1.7-9.5,6-11.2,11.2-.9,2.6-1.7,6-.9,10.3,4.3.9,7.8,0,10.3-.9,5.2-1.7,9.5-6,11.2-11.2.9-2.6.9-6,.9-10.3Z"/>
    <path class="st0" d="M163.7,416.9c4.3.9,7.8,0,10.3-.9,5.2-1.7,9.5-6,11.2-11.2.9-2.6,1.7-6,.9-10.3-4.3-.9-7.8,0-10.3.9-2.6.9-5.2,2.6-6.9,4.3-1.7,1.7-3.4,4.3-4.3,6.9-.9,2.6-.9,5.2-.9,10.3Z"/>
    <path class="st0" d="M483.7,287.5c2.6-1.7,5.2-3.4,7.8-6.9-2.6-3.4-5.2-5.2-7.8-6.9-8.6-4.3-19-.9-24.1,6.9,2.6,3.4,5.2,5.2,7.8,6.9,6,2.6,11.2,2.6,16.4,0h0Z"/>
    <path class="st0" d="M124.1,289.2c2.6,0,5.2-.9,7.8-1.7,2.6-1.7,5.2-3.4,7.8-6.9-2.6-3.4-5.2-5.2-7.8-6.9-2.6-.9-5.2-1.7-7.8-1.7s-5.2.9-7.8,1.7c-2.6,1.7-5.2,3.4-7.8,6.9,2.6,3.4,5.2,5.2,7.8,6.9,2.6.9,5.2,1.7,7.8,1.7Z"/>
    <path class="st0" d="M423.3,394.4c-2.6-.9-6-1.7-10.3-.9-.9,4.3,0,7.8.9,10.3,1.7,5.2,6,9.5,11.2,11.2,2.6.9,6,1.7,10.3.9.9-4.3,0-7.8-.9-10.3-1.7-5.2-5.2-9.5-11.2-11.2Z"/>
    <path class="st0" d="M174.9,145.2c-2.6-.9-6-1.7-10.3-.9-.9,4.3,0,7.8.9,10.3,1.7,5.2,6,9.5,11.2,11.2,2.6.9,6,1.7,10.3.9.9-4.3,0-7.8-.9-10.3-1.7-4.3-6-8.6-11.2-11.2Z"/>
    <path class="st0" d="M300,352.2c20.7,0,41.4-8.6,56.1-23.3,14.7-14.7,22.4-35.4,21.6-56.1-.9-20.7-9.5-39.7-24.1-52.6-14.7-12.9-34.5-19.8-52.6-18.1,18.1,1.7,35.4,10.3,46.6,23.3,12.1,12.9,17.2,30.2,17.2,46.6-.9,16.4-7.8,32.8-19.8,44-12.1,11.2-27.6,18.1-44,18.1s-32.8-6-44-18.1c-12.1-11.2-19-27.6-19.8-44-.9-16.4,5.2-33.6,17.2-46.6,11.2-12.9,28.5-21.6,46.6-23.3-18.1-1.7-37.9,4.3-52.6,17.2-14.7,12.9-24.1,32.8-24.1,52.6-.9,20.7,6.9,40.5,21.6,56.1,12.9,14.7,33.6,23.3,54.3,24.1Z"/>
    <path class="st0" d="M289.7,290.9c1.7,3.4,6.9,3.4,9.5,1.7l1.7-1.7c6.9-6,12.9-12.9,18.1-20.7,2.6-3.4,5.2-7.8,6.9-12.1,1.7-4.3,3.4-8.6,5.2-13.8-5.2,1.7-9.5,4.3-12.9,6.9-4.3,2.6-7.8,6-11.2,8.6-5.2,5.2-9.5,10.3-12.9,15.5-4.3-3.4-9.5-6-15.5-8.6,2.6,8.6,6.9,16.4,11.2,24.1h0Z"/>
  </g>
</svg>