<?xml version="1.0" encoding="UTF-8"?>
<svg id="Calque_1" xmlns="http://www.w3.org/2000/svg" width="600" height="600" version="1.1" viewBox="0 0 600 600">
  <!-- Generator: Adobe Illustrator 29.7.0, SVG Export Plug-In . SVG Version: 2.1.1 Build 138)  -->
  <defs>
    <style>
      .st0 {
        fill: #173a1b;
      }

      .st1 {
        fill: #4fd689;
      }
    </style>
  </defs>
  <path class="st1" d="M209.1,118.2c-22.5,43-48.9,84-78.9,122.2-3.6,4.5-7.4,9.7-6.8,15.5.4,3.6,2.5,6.7,4.7,9.5,16.1,20.1,44.5,29.4,69.3,22.7,4.8-1.3,9.6-3.2,13.2-6.7,4.4-4.2,6.5-10.2,8.4-15.9,15.1-44.8,29.6-89.8,43.5-135,1.2-4,2.4-8.8-.1-12.2-1.9-2.6-5.4-3.5-8.6-4.1-16.4-2.9-33.5-1.8-49.4,3.1"/>
  <path class="st1" d="M307.1,115.5c-5.4,65.1-10.7,130.2-16.1,195.3-.2,2.4-.3,5.2,1.5,6.9,1.4,1.3,3.4,1.4,5.3,1.4,15,.4,30.1-.1,45.1-1.5,12.6-1.1,25.6-3,36.6-9.3,2.3-1.3,4.6-3,5.5-5.4.8-2.1.4-4.4.1-6.6-8.4-56.7-1.5-115.2-12.5-171.5-.7-3.4-1.4-6.9-3.2-9.9-6.4-11.1-22.1-11.3-34.9-10.1"/>
  <path class="st0" d="M492.8,257.5h0c-.3-3.4-1.2-5.8-2.6-7.2-3.5-17.4-61.1-116.9-68.9-127.6-3.1-4.2-7.5-9.4-14.4-12.5-6.6-3-13.4-3.3-19.3-3.3-34.9.3-80.4.7-153.5,2.2-4.7.1-9.7.4-14.8,1.4-5.4,1-10.8,3.1-15,5.9-5,3.2-9,7.3-11.5,10.1-8.2,9.3-31,41.7-48.8,67.8-10.1,14.9-19.2,28.7-25.7,38.9-11.5,18.1-11.3,19.6-11.1,20.6,0,.7.4,1.2,1,1.6,0,0,0,0,0,0,0,1.6.3,3.7.8,6.2,1,5.2,3.9,15.6,11.8,25.7,6.7,8.8,16.1,15.9,26.1,19.7-.4,9.2-5.2,117.4.4,140.8,1.4,6,3.5,11.5,6.2,16.4,3,5.6,7.2,10.6,12,14.4,4.5,3.6,10.3,6.4,17,8.3,5.1,1.5,10.8,2.4,17.7,2.9,9.7.8,81.7,3.3,129.1,2.4,8.7,0,17.6.2,26.9.4,8.5.2,17.2.4,25.9.4,13.9,0,28.1-.6,42.4-2.6,4.3-.6,7.8-1.5,11-2.7,3.7-1.4,7.3-3.8,10.2-6.6,6.2-6,9-12.9,10.7-18.2,7.7-24.4,6.1-107.6,4.5-130.7-.9-11.6-1.8-19.7-2.7-24.8,24.5-9,35.9-35.1,34.5-50.1ZM448.3,332.9c0,10.8-.7,106.1-7.1,125.4-1.6,4.8-3.9,8.9-6.6,11.4-2.9,2.9-22.5,7.7-120.6,7.8-.7,0-1.3,0-2,0-56.1,0-110.4-1.6-110.9-1.6-12.7-.7-21.4-3.2-27.5-7.8-6.4-4.7-11.3-12.7-14.1-23.2-3.9-14.4-4-32.6-4.1-60.2-.1-19.8-.3-44.2-1.9-75.3,16.2,4.3,33,1.9,47.7-7,3.3-2.1,6.3-4.3,9.4-6.9-.7,19.3-3.1,89.3-3.2,89.8,0,7.2,0,14.9,2.2,22.9,1.1,3.8,2.9,8.6,7.2,12.6,4.9,4.3,10.8,5.1,14,5.5,14.2,1.5,29,2.5,44.1,3.2,25.5,1.2,53,.8,77.4-1.1,9.2-.7,17.8-1.5,27.4-2.7,2.4-.3,5.2-.9,8.1-2.1,2.9-1.2,5.7-3.3,7.8-5.8,3.9-4.7,5.2-9.7,6.2-14,2.1-10.2,5.8-53.5,4.1-86.4-.3-5.1-.7-9.1-1.1-12.3,15.3,5.6,29.4,7.4,42.2,5.4.5,0,1.1-.2,1.7-.3-.3,5-.4,12.3-.4,22.6ZM299.8,306.2c1.7-1.4,3.3-2.9,4.7-4.4.7.8,1.6,1.7,2.6,2.6h0c10.9,9,25.3,13.9,40.7,13.9h.1c15.2,0,29.7-4.8,40.8-13.5l2.5-2.2c.9-.8,1.6-1.5,2.3-2.3.3.2.7.3,1,.5-.6,3.3-1.1,8.5-1.5,16.5v.2c-.4,6.8-3.6,67-7.1,82.8-.7,3.1-1.6,5.5-2.8,6.8-.6.7-1.1,1.1-1.9,1.4-.9.4-2.2.7-3.9.9-9.2,1-18.1,1.9-26.4,2.5-17.4,1.3-44.7,2.8-75.7,2-14.6-.3-29.5-1-43.2-2-2.9-.2-5.3-.9-6.3-1.7-1.3-1.1-2.5-3.3-3.4-6.1-1.9-6-2.3-13.1-2.5-19.1-.2-9.9,0-13.2.1-16.4.3-5.8.7-11.3-1.7-54.6-.6-11.6-1.2-19.9-1.8-24.7.3-.3.6-.6.9-.9.3.5.6,1,.9,1.5,8.8,14.3,24.2,24.9,40,27.7,14.6,2.5,28.9-1.4,41.3-11.4ZM138.2,219.6c23.3-31.3,55.2-74.1,64.5-84,3.3-3.4,6.1-5.8,9-7.5,3-1.8,6.4-3.1,10.3-3.7,5.2-.9,9.2-.9,31.3-.8,21.1,0,60.4.2,134.3-.5,5.9,0,9.8.5,12.6,1.8,2.7,1.2,5.3,3.6,8.1,7.4,4.8,6.5,18.2,29.1,32.3,53.1,17,28.8,34.6,58.6,41.1,66.8-.5,1-.9,2.4-1.5,4.4-11.2,40.7-36.2,44.3-81.5,36.5-.5,0-1-.2-1.5-.2-.2-1.6-1.1-2.6-1.7-3.2-1.7-1.7-3.9-3-8.8-.5l-3.7,2c-23.6,13.6-44.3,15.3-71.3,5.8-1-.4-1.9-.8-2.7-1.1,0,0,0,0,0,0,3-5.5,1.9-7.8-.6-9.6-2.7-1.9-5.1-1.6-8.9,1.3-.7.5-1.4,1-2.2,1.6-1.7,1.3-3.7,2.8-6.5,4.6-21.8,13.8-41.4,10.9-65.6-9.6l-1.1-1c-.4-.4-.9-.7-1.3-1.1.9-1.2,1.7-2.3,2.5-3.6,3.7-5.9,4.1-8.9,1.2-11.3-2.8-2.3-5.5-1.6-10.8,2.9-1.2,1-2.6,2.3-4.2,3.7-2.2,2-4.9,4.4-8.2,7.2-16,12.9-32.1,16.9-49.3,12.2-8.4-2.1-17-7.3-23.6-14.3-5.2-5.4-9.6-12.1-13.1-20-.8-1.9-1.5-3.6-2-5-.4-1-.8-1.9-1.1-2.7,3.5-4.4,12.6-16.7,23.9-31.8Z"/>
</svg>