<?xml version="1.0" encoding="UTF-8"?>
<svg id="Calque_1" xmlns="http://www.w3.org/2000/svg" width="600" height="600" version="1.1" viewBox="0 0 600 600">
  <!-- Generator: Adobe Illustrator 29.7.0, SVG Export Plug-In . SVG Version: 2.1.1 Build 138)  -->
  <defs>
    <style>
      .st0 {
        fill: #173a1b;
      }

      .st1 {
        fill: #4fd689;
      }
    </style>
  </defs>
  <path class="st1" d="M304.9,199.9c2.7,87.2.3,133.1-5,220.2,0,1.1-.1,2.3.3,3.3,1.2,2.5,4.6,2.6,7.4,2.4,51.9-4,103.3,10.4,155,16.2,1.8.2,3.9.4,5.4-.6,2.5-1.6,2.5-5.1,2.1-8-6.8-59-48.2-112.6-103.5-134.2,19.5-22.2,30.2-55,18-81.8-9.6-21.1-31.3-34.4-53.4-41.4-9.5-3-19.6-5.1-29.3-2.9l3,26.9Z"/>
  <g id="_x31_4">
    <path class="st0" d="M68.2,443.4c27.2-1,54.4-1,80.7-1.9,1.9,0,3.9-1,4.9-2.9,66.1-1.9,103-2.9,146.7-4.9-43.7-1.9-79.7-2.9-144.8-4.9,1-11.7,2.9-24.3,5.8-35,14.6-40.8,45.7-71.9,83.6-87.5,1,0,1.9-1,2.9-1.9,2.9-2.9,2.9-8.7,0-11.7-10.7-10.7-18.5-24.3-21.4-38.9-2.9-14.6-1.9-30.1,3.9-43.7,5.8-13.6,15.5-26.2,27.2-34,5.8-3.9,12.6-6.8,20.4-9.7,6.8-1.9,14.6-2.9,22.4-2.9s14.6,1,22.4,2.9c6.8,1.9,13.6,5.8,20.4,9.7,12.6,8.7,22.4,20.4,27.2,34,5.8,13.6,6.8,29.2,3.9,43.7-2.9,14.6-10.7,28.2-21.4,38.9-1,1-1.9,1.9-1.9,2.9-1.9,3.9,0,8.7,4.9,10.7,25.3,9.7,48.6,27.2,64.1,50.5,7.8,10.7,14.6,22.4,18.5,35,3.9,11.7,5.8,24.3,6.8,36.9-22.4,1-45.7,1-68,1.9-25.3,1-50.5,1.9-75.8,2.9,25.3,1,50.5,1.9,75.8,2.9,23.3,1,46.6,1.9,70,1.9,1,1.9,2.9,2.9,4.9,2.9,27.2,1,54.4,1,80.7,1.9,4.9,0,8.7-3.9,8.7-8.7-1-25.3-8.7-50.5-23.3-71.9-11.7-17.5-28.2-32.1-46.6-41.8,8.7-10.7,13.6-24.3,14.6-37.9,1.9-18.5-2.9-36.9-13.6-51.5-10.7-14.6-26.2-25.3-43.7-29.2-13.6-3.9-29.2-2.9-41.8,1.9-6.8-17.5-19.4-32.1-34-42.8-7.8-4.9-16.5-9.7-25.3-11.7-8.7-2.9-18.5-3.9-27.2-3.9s-18.5,1.9-27.2,3.9c-8.7,2.9-17.5,6.8-25.3,11.7-15.5,10.7-27.2,25.3-34,42.8-13.6-4.9-28.2-5.8-42.8-1.9-17.5,3.9-33,14.6-43.7,29.2s-15.5,33-13.6,51.5c1,13.6,6.8,27.2,14.6,37.9-18.5,9.7-35,24.3-46.6,41.8-14.6,21.4-23.3,45.7-23.3,71.9,1,4.9,4.9,8.7,9.7,8.7h0ZM391.8,214c11.7-2.9,24.3-2.9,35,1,13.6,3.9,26.2,13.6,34,25.3,7.8,11.7,10.7,26.2,9.7,40.8-1.9,13.6-8.7,27.2-18.5,36-4.9,4.9-3.9,12.6,2.9,15.5,20.4,8.7,37.9,22.4,50.5,40.8,10.7,15.5,17.5,33,20.4,51.5-21.4,0-42.8,1-64.1,1-1-13.6-4.9-26.2-9.7-38.9-4.9-13.6-10.7-27.2-18.5-38.9-14.6-22.4-35-39.8-58.3-52.5,17.5-22.4,24.3-52.5,16.5-81.6h0ZM98.4,373.4c12.6-17.5,30.1-32.1,50.5-40.8,6.8-2.9,7.8-10.7,2.9-15.5-10.7-9.7-16.5-22.4-18.5-36-1.9-13.6,1.9-28.2,9.7-40.8,7.8-11.7,19.4-21.4,34-25.3,11.7-3.9,23.3-3.9,35-1-7.8,29.2-1,59.3,18.5,82.6-23.3,12.6-43.7,30.1-58.3,52.5-7.8,10.7-13.6,23.3-17.5,36-5.8,13.6-8.7,27.2-10.7,41.8-21.4-1-42.8-1-64.1-1,1-19.4,7.8-36.9,18.5-52.5h0Z"/>
  </g>
</svg>